Coordinates
nRows=7
nColumns=24

# SIMM Motion File Header:
name Coordinates
datacolumns 24
datarows 7
otherdata 1
range 0.83933000000000002000 0.84533000000000003000

Units are S.I. units (second, meters, Newtons, ...)
Angles are in degrees.

endheader
time	pelvis_tx	pelvis_ty	pelvis_tz	pelvis_tilt	pelvis_list	pelvis_rotation	hip_flexion_r	hip_adduction_r	hip_rotation_r	knee_angle_r	ankle_angle_r	subtalar_angle_r	mtp_angle_r	hip_flexion_l	hip_adduction_l	hip_rotation_l	knee_angle_l	ankle_angle_l	subtalar_angle_l	mtp_angle_l	lumbar_extension	lumbar_bending	lumbar_rotation
      0.83933000000000002000	      1.95910573357609690000	      0.74410469959613879000	     -0.18353477079360514000	     -1.59776670302542740000	     -2.58537032774563750000	      1.16253069067413260000	      9.38195202654256550000	      8.62881523609594050000	      0.17862400882647184000	    -16.00098781896755500000	      8.47596013548026230000	     -0.00000000000005809960	      0.00000000000005406321	     19.23599132003213800000	     -5.27401584585514720000	     -7.58074244441013700000	    -57.27692231884577000000	     -2.91784318300160670000	      0.00000000000064290290	     -0.00000000000036324269	     -4.02745990360592110000	      2.93547894591224750000	      8.44032051492010990000
      0.84033000000000002000	      1.96010454406490140000	      0.74422095531107491000	     -0.18344235475514312000	     -1.58282791567861690000	     -2.55779916786003940000	      1.14575449236009950000	      9.22284693618867730000	      8.60592663827851470000	      0.15123803794360036000	    -15.89293095387514000000	      8.50504912326416470000	     -0.00000000000005879913	      0.00000000000005514315	     19.35547748695068300000	     -5.22216596330419860000	     -7.44091301447431070000	    -57.10529912276434300000	     -2.80728027075780200000	      0.00000000000064419515	     -0.00000000000036415515	     -4.06182983593110690000	      2.87164622104156790000	      8.50482462079428990000
      0.84133000000000002000	      1.96110320249220930000	      0.74433472982276605000	     -0.18335043640996901000	     -1.56790706485663110000	     -2.53039973476105380000	      1.12875536229386930000	      9.06372949772877590000	      8.58303544613689160000	      0.12395916739157857000	    -15.78467059163276600000	      8.53387000120580550000	     -0.00000000000005953390	      0.00000000000005625914	     19.47363563078278400000	     -5.17052700120387150000	     -7.30110748830646460000	    -56.93002150949293100000	     -2.69818342497276920000	      0.00000000000064548800	     -0.00000000000036506692	     -4.09616484800281540000	      2.80814927742150600000	      8.56934010669002610000
      0.84233000000000002000	      1.96210170964197820000	      0.74444599219352237000	     -0.18325905226259151000	     -1.55301067042105110000	     -2.50317550003420750000	      1.11152836675224040000	      8.90460951491994560000	      8.56015020525622820000	      0.09684323367974426200	    -15.67621796033439800000	      8.56242763813413000000	     -0.00000000000006028781	      0.00000000000005739780	     19.59047806066041300000	     -5.11911838354700420000	     -7.16140976933003510000	    -56.75112101770555000000	     -2.59051195833978600000	      0.00000000000064678050	     -0.00000000000036597886	     -4.13045530285686890000	      2.74500949673887180000	      8.63385872726550120000
      0.84333000000000002000	      1.96310006701253960000	      0.74455471175880183000	     -0.18316823862629747000	     -1.53814504550235000000	     -2.47612977936156750000	      1.09406883695537620000	      8.74549650457815990000	      8.53727935354015170000	      0.06994600678330023500	    -15.56758435315063900000	      8.59072711469279150000	     -0.00000000000006106825	      0.00000000000005852413	     19.70601700974731700000	     -5.06795922012059830000	     -7.02190445589789470000	    -56.56862943122731500000	     -2.48422602820025730000	      0.00000000000064807201	     -0.00000000000036688810	     -4.16469162007648830000	      2.68224797362726400000	      8.69837153920969540000
      0.84433000000000002000	      1.96409827682149230000	      0.74466085815076022000	     -0.18307803157991961000	     -1.52331629428652620000	     -2.44926573450697570000	      1.07637237459063590000	      8.58639969060071270000	      8.51443121169760890000	      0.04332309798308791500	    -15.45878111479146400000	      8.61877371329862460000	     -0.00000000000006185681	      0.00000000000005957346	     19.82026461836302300000	     -5.01706829216176330000	     -6.88267677946686800000	    -56.38257875188600100000	     -2.37928669055899440000	      0.00000000000064936310	     -0.00000000000036779448	     -4.19886428578230310000	      2.61988550060378070000	      8.76286889922637790000
      0.84533000000000003000	      1.96509634200626680000	      0.74476440132345234000	     -0.18298846692507276000	     -1.50853031033168690000	     -2.42258637578581750000	      1.05843485618156170000	      8.42732799900067420000	      8.49161397457539380000	      0.01702986802118582700	    -15.34981962880766000000	      8.64657290796771780000	     -0.00000000000006265685	      0.00000000000006060105	     19.93323291758566300000	     -4.96646403860503670000	     -6.74381254051044810000	    -56.19300117211992100000	     -2.27565595037824900000	      0.00000000000065065267	     -0.00000000000036869869	     -4.23296386331013160000	      2.55794255403559270000	      8.82734046155827200000
